<?xml version="1.0" encoding="UTF-8" standalone="no"?>
<!DOCTYPE svg PUBLIC "-//W3C//DTD SVG 1.1//EN"
 "http://www.w3.org/Graphics/SVG/1.1/DTD/svg11.dtd">
<!-- Generated by graphviz version 2.43.0 (0)
 -->
<!-- Title: %3 Pages: 1 -->
<svg width="2080pt" height="476pt"
 viewBox="0.00 0.00 2080.28 476.00" xmlns="http://www.w3.org/2000/svg" xmlns:xlink="http://www.w3.org/1999/xlink">
<g id="graph0" class="graph" transform="scale(1 1) rotate(0) translate(4 472)">
<title>%3</title>
<polygon fill="white" stroke="transparent" points="-4,4 -4,-472 2076.28,-472 2076.28,4 -4,4"/>
<!-- [root] google_storage_bucket.tbd&#45;code&#45;bucket (expand) -->
<g id="node1" class="node">
<title>[root] google_storage_bucket.tbd&#45;code&#45;bucket (expand)</title>
<polygon fill="none" stroke="black" points="497.5,-252 199.5,-252 199.5,-216 497.5,-216 497.5,-252"/>
<text text-anchor="middle" x="348.5" y="-230.3" font-family="Times,serif" font-size="14.00">google_storage_bucket.tbd&#45;code&#45;bucket</text>
</g>
<!-- [root] provider[&quot;registry.terraform.io/hashicorp/google&quot;] -->
<g id="node7" class="node">
<title>[root] provider[&quot;registry.terraform.io/hashicorp/google&quot;]</title>
<polygon fill="none" stroke="black" points="893.5,-180 549.97,-162 893.5,-144 1237.03,-162 893.5,-180"/>
<text text-anchor="middle" x="893.5" y="-158.3" font-family="Times,serif" font-size="14.00">provider[&quot;registry.terraform.io/hashicorp/google&quot;]</text>
</g>
<!-- [root] google_storage_bucket.tbd&#45;code&#45;bucket (expand)&#45;&gt;[root] provider[&quot;registry.terraform.io/hashicorp/google&quot;] -->
<g id="edge1" class="edge">
<title>[root] google_storage_bucket.tbd&#45;code&#45;bucket (expand)&#45;&gt;[root] provider[&quot;registry.terraform.io/hashicorp/google&quot;]</title>
<path fill="none" stroke="black" d="M481.13,-215.97C575.93,-203.79 701.74,-187.63 789.35,-176.38"/>
<polygon fill="black" stroke="black" points="789.84,-179.84 799.31,-175.1 788.95,-172.9 789.84,-179.84"/>
</g>
<!-- [root] var.bucket_name -->
<g id="node8" class="node">
<title>[root] var.bucket_name</title>
<polygon fill="none" stroke="black" points="262,-180 131,-180 131,-144 268,-144 268,-174 262,-180"/>
<polyline fill="none" stroke="black" points="262,-180 262,-174 "/>
<polyline fill="none" stroke="black" points="268,-174 262,-174 "/>
<text text-anchor="middle" x="199.5" y="-158.3" font-family="Times,serif" font-size="14.00">var.bucket_name</text>
</g>
<!-- [root] google_storage_bucket.tbd&#45;code&#45;bucket (expand)&#45;&gt;[root] var.bucket_name -->
<g id="edge2" class="edge">
<title>[root] google_storage_bucket.tbd&#45;code&#45;bucket (expand)&#45;&gt;[root] var.bucket_name</title>
<path fill="none" stroke="black" d="M312.05,-215.88C291.86,-206.39 266.58,-194.51 245.09,-184.42"/>
<polygon fill="black" stroke="black" points="246.37,-181.15 235.83,-180.07 243.39,-187.49 246.37,-181.15"/>
</g>
<!-- [root] var.project_name -->
<g id="node12" class="node">
<title>[root] var.project_name</title>
<polygon fill="none" stroke="black" points="526,-180 393,-180 393,-144 532,-144 532,-174 526,-180"/>
<polyline fill="none" stroke="black" points="526,-180 526,-174 "/>
<polyline fill="none" stroke="black" points="532,-174 526,-174 "/>
<text text-anchor="middle" x="462.5" y="-158.3" font-family="Times,serif" font-size="14.00">var.project_name</text>
</g>
<!-- [root] google_storage_bucket.tbd&#45;code&#45;bucket (expand)&#45;&gt;[root] var.project_name -->
<g id="edge3" class="edge">
<title>[root] google_storage_bucket.tbd&#45;code&#45;bucket (expand)&#45;&gt;[root] var.project_name</title>
<path fill="none" stroke="black" d="M376.39,-215.88C391.29,-206.72 409.83,-195.34 425.88,-185.48"/>
<polygon fill="black" stroke="black" points="427.81,-188.41 434.51,-180.19 424.15,-182.44 427.81,-188.41"/>
</g>
<!-- [root] var.region -->
<g id="node13" class="node">
<title>[root] var.region</title>
<polygon fill="none" stroke="black" points="369,-180 286,-180 286,-144 375,-144 375,-174 369,-180"/>
<polyline fill="none" stroke="black" points="369,-180 369,-174 "/>
<polyline fill="none" stroke="black" points="375,-174 369,-174 "/>
<text text-anchor="middle" x="330.5" y="-158.3" font-family="Times,serif" font-size="14.00">var.region</text>
</g>
<!-- [root] google_storage_bucket.tbd&#45;code&#45;bucket (expand)&#45;&gt;[root] var.region -->
<g id="edge4" class="edge">
<title>[root] google_storage_bucket.tbd&#45;code&#45;bucket (expand)&#45;&gt;[root] var.region</title>
<path fill="none" stroke="black" d="M344.05,-215.7C342.05,-207.9 339.63,-198.51 337.4,-189.83"/>
<polygon fill="black" stroke="black" points="340.78,-188.92 334.9,-180.1 334,-190.66 340.78,-188.92"/>
</g>
<!-- [root] google_storage_bucket.tbd&#45;data&#45;bucket (expand) -->
<g id="node2" class="node">
<title>[root] google_storage_bucket.tbd&#45;data&#45;bucket (expand)</title>
<polygon fill="none" stroke="black" points="1041.5,-252 745.5,-252 745.5,-216 1041.5,-216 1041.5,-252"/>
<text text-anchor="middle" x="893.5" y="-230.3" font-family="Times,serif" font-size="14.00">google_storage_bucket.tbd&#45;data&#45;bucket</text>
</g>
<!-- [root] google_storage_bucket.tbd&#45;data&#45;bucket (expand)&#45;&gt;[root] provider[&quot;registry.terraform.io/hashicorp/google&quot;] -->
<g id="edge5" class="edge">
<title>[root] google_storage_bucket.tbd&#45;data&#45;bucket (expand)&#45;&gt;[root] provider[&quot;registry.terraform.io/hashicorp/google&quot;]</title>
<path fill="none" stroke="black" d="M893.5,-215.7C893.5,-207.98 893.5,-198.71 893.5,-190.11"/>
<polygon fill="black" stroke="black" points="897,-190.1 893.5,-180.1 890,-190.1 897,-190.1"/>
</g>
<!-- [root] var.data_bucket_name -->
<g id="node10" class="node">
<title>[root] var.data_bucket_name</title>
<polygon fill="none" stroke="black" points="1424,-180 1255,-180 1255,-144 1430,-144 1430,-174 1424,-180"/>
<polyline fill="none" stroke="black" points="1424,-180 1424,-174 "/>
<polyline fill="none" stroke="black" points="1430,-174 1424,-174 "/>
<text text-anchor="middle" x="1342.5" y="-158.3" font-family="Times,serif" font-size="14.00">var.data_bucket_name</text>
</g>
<!-- [root] google_storage_bucket.tbd&#45;data&#45;bucket (expand)&#45;&gt;[root] var.data_bucket_name -->
<g id="edge6" class="edge">
<title>[root] google_storage_bucket.tbd&#45;data&#45;bucket (expand)&#45;&gt;[root] var.data_bucket_name</title>
<path fill="none" stroke="black" d="M1012.09,-215.99C1078.04,-206.33 1161.86,-193.76 1245.01,-180.23"/>
<polygon fill="black" stroke="black" points="1245.58,-183.68 1254.88,-178.61 1244.45,-176.77 1245.58,-183.68"/>
</g>
<!-- [root] google_storage_bucket.tbd&#45;data&#45;bucket (expand)&#45;&gt;[root] var.project_name -->
<g id="edge7" class="edge">
<title>[root] google_storage_bucket.tbd&#45;data&#45;bucket (expand)&#45;&gt;[root] var.project_name</title>
<path fill="none" stroke="black" d="M766.54,-215.99C701.96,-206.84 622.03,-194.76 542.41,-180.3"/>
<polygon fill="black" stroke="black" points="542.66,-176.78 532.2,-178.43 541.4,-183.67 542.66,-176.78"/>
</g>
<!-- [root] google_storage_bucket.tbd&#45;data&#45;bucket (expand)&#45;&gt;[root] var.region -->
<g id="edge8" class="edge">
<title>[root] google_storage_bucket.tbd&#45;data&#45;bucket (expand)&#45;&gt;[root] var.region</title>
<path fill="none" stroke="black" d="M745.31,-217.78C611.75,-204.04 430.47,-185.33 385.13,-179.51"/>
<polygon fill="black" stroke="black" points="385.55,-176.03 375.14,-178.04 384.53,-182.96 385.55,-176.03"/>
</g>
<!-- [root] google_storage_bucket_iam_member.tbd&#45;code&#45;bucket&#45;iam&#45;viewer (expand) -->
<g id="node3" class="node">
<title>[root] google_storage_bucket_iam_member.tbd&#45;code&#45;bucket&#45;iam&#45;viewer (expand)</title>
<polygon fill="none" stroke="black" points="790,-324 311,-324 311,-288 790,-288 790,-324"/>
<text text-anchor="middle" x="550.5" y="-302.3" font-family="Times,serif" font-size="14.00">google_storage_bucket_iam_member.tbd&#45;code&#45;bucket&#45;iam&#45;viewer</text>
</g>
<!-- [root] google_storage_bucket_iam_member.tbd&#45;code&#45;bucket&#45;iam&#45;viewer (expand)&#45;&gt;[root] google_storage_bucket.tbd&#45;code&#45;bucket (expand) -->
<g id="edge9" class="edge">
<title>[root] google_storage_bucket_iam_member.tbd&#45;code&#45;bucket&#45;iam&#45;viewer (expand)&#45;&gt;[root] google_storage_bucket.tbd&#45;code&#45;bucket (expand)</title>
<path fill="none" stroke="black" d="M501.34,-287.97C473,-278.14 437.18,-265.73 407.34,-255.39"/>
<polygon fill="black" stroke="black" points="408.47,-252.08 397.88,-252.11 406.18,-258.69 408.47,-252.08"/>
</g>
<!-- [root] var.data_service_account -->
<g id="node11" class="node">
<title>[root] var.data_service_account</title>
<polygon fill="none" stroke="black" points="712.5,-252 524.5,-252 524.5,-216 718.5,-216 718.5,-246 712.5,-252"/>
<polyline fill="none" stroke="black" points="712.5,-252 712.5,-246 "/>
<polyline fill="none" stroke="black" points="718.5,-246 712.5,-246 "/>
<text text-anchor="middle" x="621.5" y="-230.3" font-family="Times,serif" font-size="14.00">var.data_service_account</text>
</g>
<!-- [root] google_storage_bucket_iam_member.tbd&#45;code&#45;bucket&#45;iam&#45;viewer (expand)&#45;&gt;[root] var.data_service_account -->
<g id="edge10" class="edge">
<title>[root] google_storage_bucket_iam_member.tbd&#45;code&#45;bucket&#45;iam&#45;viewer (expand)&#45;&gt;[root] var.data_service_account</title>
<path fill="none" stroke="black" d="M568.05,-287.7C576.73,-279.14 587.36,-268.66 596.85,-259.3"/>
<polygon fill="black" stroke="black" points="599.49,-261.62 604.15,-252.1 594.57,-256.63 599.49,-261.62"/>
</g>
<!-- [root] google_storage_bucket_iam_member.tbd&#45;data&#45;bucket&#45;iam&#45;editor (expand) -->
<g id="node4" class="node">
<title>[root] google_storage_bucket_iam_member.tbd&#45;data&#45;bucket&#45;iam&#45;editor (expand)</title>
<polygon fill="none" stroke="black" points="1280.5,-324 808.5,-324 808.5,-288 1280.5,-288 1280.5,-324"/>
<text text-anchor="middle" x="1044.5" y="-302.3" font-family="Times,serif" font-size="14.00">google_storage_bucket_iam_member.tbd&#45;data&#45;bucket&#45;iam&#45;editor</text>
</g>
<!-- [root] google_storage_bucket_iam_member.tbd&#45;data&#45;bucket&#45;iam&#45;editor (expand)&#45;&gt;[root] google_storage_bucket.tbd&#45;data&#45;bucket (expand) -->
<g id="edge11" class="edge">
<title>[root] google_storage_bucket_iam_member.tbd&#45;data&#45;bucket&#45;iam&#45;editor (expand)&#45;&gt;[root] google_storage_bucket.tbd&#45;data&#45;bucket (expand)</title>
<path fill="none" stroke="black" d="M1007.56,-287.88C987.01,-278.35 961.25,-266.41 939.41,-256.28"/>
<polygon fill="black" stroke="black" points="940.86,-253.1 930.32,-252.07 937.92,-259.45 940.86,-253.1"/>
</g>
<!-- [root] google_storage_bucket_iam_member.tbd&#45;data&#45;bucket&#45;iam&#45;editor (expand)&#45;&gt;[root] var.data_service_account -->
<g id="edge12" class="edge">
<title>[root] google_storage_bucket_iam_member.tbd&#45;data&#45;bucket&#45;iam&#45;editor (expand)&#45;&gt;[root] var.data_service_account</title>
<path fill="none" stroke="black" d="M941.56,-287.97C877.01,-277.28 793.96,-263.54 728.63,-252.73"/>
<polygon fill="black" stroke="black" points="729.15,-249.27 718.71,-251.09 728.01,-256.17 729.15,-249.27"/>
</g>
<!-- [root] google_storage_bucket_object.dag&#45;code (expand) -->
<g id="node5" class="node">
<title>[root] google_storage_bucket_object.dag&#45;code (expand)</title>
<polygon fill="none" stroke="black" points="1606.5,-324 1308.5,-324 1308.5,-288 1606.5,-288 1606.5,-324"/>
<text text-anchor="middle" x="1457.5" y="-302.3" font-family="Times,serif" font-size="14.00">google_storage_bucket_object.dag&#45;code</text>
</g>
<!-- [root] google_storage_bucket_object.dag&#45;code (expand)&#45;&gt;[root] provider[&quot;registry.terraform.io/hashicorp/google&quot;] -->
<g id="edge15" class="edge">
<title>[root] google_storage_bucket_object.dag&#45;code (expand)&#45;&gt;[root] provider[&quot;registry.terraform.io/hashicorp/google&quot;]</title>
<path fill="none" stroke="black" d="M1389.75,-287.94C1280.62,-260.47 1067.26,-206.75 959.35,-179.58"/>
<polygon fill="black" stroke="black" points="960.11,-176.16 949.56,-177.11 958.4,-182.95 960.11,-176.16"/>
</g>
<!-- [root] local.dag_bucket_name (expand) -->
<g id="node14" class="node">
<title>[root] local.dag_bucket_name (expand)</title>
<ellipse fill="none" stroke="black" cx="1882.5" cy="-234" rx="189.57" ry="18"/>
<text text-anchor="middle" x="1882.5" y="-230.3" font-family="Times,serif" font-size="14.00">[root] local.dag_bucket_name (expand)</text>
</g>
<!-- [root] google_storage_bucket_object.dag&#45;code (expand)&#45;&gt;[root] local.dag_bucket_name (expand) -->
<g id="edge13" class="edge">
<title>[root] google_storage_bucket_object.dag&#45;code (expand)&#45;&gt;[root] local.dag_bucket_name (expand)</title>
<path fill="none" stroke="black" d="M1560.92,-287.97C1628.23,-276.88 1715.57,-262.49 1782.24,-251.51"/>
<polygon fill="black" stroke="black" points="1783.04,-254.93 1792.34,-249.85 1781.9,-248.02 1783.04,-254.93"/>
</g>
<!-- [root] local.dag_folder (expand) -->
<g id="node15" class="node">
<title>[root] local.dag_folder (expand)</title>
<ellipse fill="none" stroke="black" cx="1498.5" cy="-234" rx="155.97" ry="18"/>
<text text-anchor="middle" x="1498.5" y="-230.3" font-family="Times,serif" font-size="14.00">[root] local.dag_folder (expand)</text>
</g>
<!-- [root] google_storage_bucket_object.dag&#45;code (expand)&#45;&gt;[root] local.dag_folder (expand) -->
<g id="edge14" class="edge">
<title>[root] google_storage_bucket_object.dag&#45;code (expand)&#45;&gt;[root] local.dag_folder (expand)</title>
<path fill="none" stroke="black" d="M1467.63,-287.7C1472.35,-279.64 1478.06,-269.89 1483.28,-260.98"/>
<polygon fill="black" stroke="black" points="1486.45,-262.5 1488.48,-252.1 1480.41,-258.96 1486.45,-262.5"/>
</g>
<!-- [root] google_storage_bucket_object.job&#45;code (expand) -->
<g id="node6" class="node">
<title>[root] google_storage_bucket_object.job&#45;code (expand)</title>
<polygon fill="none" stroke="black" points="293,-324 0,-324 0,-288 293,-288 293,-324"/>
<text text-anchor="middle" x="146.5" y="-302.3" font-family="Times,serif" font-size="14.00">google_storage_bucket_object.job&#45;code</text>
</g>
<!-- [root] google_storage_bucket_object.job&#45;code (expand)&#45;&gt;[root] google_storage_bucket.tbd&#45;code&#45;bucket (expand) -->
<g id="edge16" class="edge">
<title>[root] google_storage_bucket_object.job&#45;code (expand)&#45;&gt;[root] google_storage_bucket.tbd&#45;code&#45;bucket (expand)</title>
<path fill="none" stroke="black" d="M195.66,-287.97C224,-278.14 259.82,-265.73 289.66,-255.39"/>
<polygon fill="black" stroke="black" points="290.82,-258.69 299.12,-252.11 288.53,-252.08 290.82,-258.69"/>
</g>
<!-- [root] var.dag_bucket_name -->
<g id="node9" class="node">
<title>[root] var.dag_bucket_name</title>
<polygon fill="none" stroke="black" points="1876.5,-36 1712.5,-36 1712.5,0 1882.5,0 1882.5,-30 1876.5,-36"/>
<polyline fill="none" stroke="black" points="1876.5,-36 1876.5,-30 "/>
<polyline fill="none" stroke="black" points="1882.5,-30 1876.5,-30 "/>
<text text-anchor="middle" x="1797.5" y="-14.3" font-family="Times,serif" font-size="14.00">var.dag_bucket_name</text>
</g>
<!-- [root] local.dag_bucket_name_levels (expand) -->
<g id="node16" class="node">
<title>[root] local.dag_bucket_name_levels (expand)</title>
<ellipse fill="none" stroke="black" cx="1797.5" cy="-90" rx="220.96" ry="18"/>
<text text-anchor="middle" x="1797.5" y="-86.3" font-family="Times,serif" font-size="14.00">[root] local.dag_bucket_name_levels (expand)</text>
</g>
<!-- [root] local.dag_bucket_name (expand)&#45;&gt;[root] local.dag_bucket_name_levels (expand) -->
<g id="edge17" class="edge">
<title>[root] local.dag_bucket_name (expand)&#45;&gt;[root] local.dag_bucket_name_levels (expand)</title>
<path fill="none" stroke="black" d="M1894.11,-215.72C1905.21,-196.84 1918.35,-166.31 1904.5,-144 1895.81,-130 1882.2,-119.58 1867.56,-111.87"/>
<polygon fill="black" stroke="black" points="1868.87,-108.62 1858.35,-107.41 1865.82,-114.92 1868.87,-108.62"/>
</g>
<!-- [root] local.dag_bucket_name_length (expand) -->
<g id="node17" class="node">
<title>[root] local.dag_bucket_name_length (expand)</title>
<ellipse fill="none" stroke="black" cx="1671.5" cy="-162" rx="223.66" ry="18"/>
<text text-anchor="middle" x="1671.5" y="-158.3" font-family="Times,serif" font-size="14.00">[root] local.dag_bucket_name_length (expand)</text>
</g>
<!-- [root] local.dag_folder (expand)&#45;&gt;[root] local.dag_bucket_name_length (expand) -->
<g id="edge20" class="edge">
<title>[root] local.dag_folder (expand)&#45;&gt;[root] local.dag_bucket_name_length (expand)</title>
<path fill="none" stroke="black" d="M1539.06,-216.59C1563.43,-206.73 1594.66,-194.09 1620.67,-183.57"/>
<polygon fill="black" stroke="black" points="1622.03,-186.79 1629.99,-179.8 1619.41,-180.3 1622.03,-186.79"/>
</g>
<!-- [root] local.dag_bucket_name_levels (expand)&#45;&gt;[root] var.dag_bucket_name -->
<g id="edge19" class="edge">
<title>[root] local.dag_bucket_name_levels (expand)&#45;&gt;[root] var.dag_bucket_name</title>
<path fill="none" stroke="black" d="M1797.5,-71.7C1797.5,-63.98 1797.5,-54.71 1797.5,-46.11"/>
<polygon fill="black" stroke="black" points="1801,-46.1 1797.5,-36.1 1794,-46.1 1801,-46.1"/>
</g>
<!-- [root] local.dag_bucket_name_length (expand)&#45;&gt;[root] local.dag_bucket_name_levels (expand) -->
<g id="edge18" class="edge">
<title>[root] local.dag_bucket_name_length (expand)&#45;&gt;[root] local.dag_bucket_name_levels (expand)</title>
<path fill="none" stroke="black" d="M1702,-144.05C1718.75,-134.75 1739.71,-123.11 1757.73,-113.1"/>
<polygon fill="black" stroke="black" points="1759.8,-115.95 1766.84,-108.03 1756.4,-109.83 1759.8,-115.95"/>
</g>
<!-- [root] provider[&quot;registry.terraform.io/hashicorp/google&quot;] (close) -->
<g id="node18" class="node">
<title>[root] provider[&quot;registry.terraform.io/hashicorp/google&quot;] (close)</title>
<ellipse fill="none" stroke="black" cx="797.5" cy="-378" rx="304.65" ry="18"/>
<text text-anchor="middle" x="797.5" y="-374.3" font-family="Times,serif" font-size="14.00">[root] provider[&quot;registry.terraform.io/hashicorp/google&quot;] (close)</text>
</g>
<!-- [root] provider[&quot;registry.terraform.io/hashicorp/google&quot;] (close)&#45;&gt;[root] google_storage_bucket_iam_member.tbd&#45;code&#45;bucket&#45;iam&#45;viewer (expand) -->
<g id="edge21" class="edge">
<title>[root] provider[&quot;registry.terraform.io/hashicorp/google&quot;] (close)&#45;&gt;[root] google_storage_bucket_iam_member.tbd&#45;code&#45;bucket&#45;iam&#45;viewer (expand)</title>
<path fill="none" stroke="black" d="M738.65,-360.32C703.15,-350.26 657.73,-337.39 620.41,-326.81"/>
<polygon fill="black" stroke="black" points="621.19,-323.4 610.61,-324.04 619.28,-330.13 621.19,-323.4"/>
</g>
<!-- [root] provider[&quot;registry.terraform.io/hashicorp/google&quot;] (close)&#45;&gt;[root] google_storage_bucket_iam_member.tbd&#45;data&#45;bucket&#45;iam&#45;editor (expand) -->
<g id="edge22" class="edge">
<title>[root] provider[&quot;registry.terraform.io/hashicorp/google&quot;] (close)&#45;&gt;[root] google_storage_bucket_iam_member.tbd&#45;data&#45;bucket&#45;iam&#45;editor (expand)</title>
<path fill="none" stroke="black" d="M856.35,-360.32C891.85,-350.26 937.27,-337.39 974.59,-326.81"/>
<polygon fill="black" stroke="black" points="975.72,-330.13 984.39,-324.04 973.81,-323.4 975.72,-330.13"/>
</g>
<!-- [root] provider[&quot;registry.terraform.io/hashicorp/google&quot;] (close)&#45;&gt;[root] google_storage_bucket_object.dag&#45;code (expand) -->
<g id="edge23" class="edge">
<title>[root] provider[&quot;registry.terraform.io/hashicorp/google&quot;] (close)&#45;&gt;[root] google_storage_bucket_object.dag&#45;code (expand)</title>
<path fill="none" stroke="black" d="M938.68,-362.03C1044.16,-350.84 1188.44,-335.54 1298.07,-323.91"/>
<polygon fill="black" stroke="black" points="1298.66,-327.37 1308.23,-322.83 1297.92,-320.41 1298.66,-327.37"/>
</g>
<!-- [root] provider[&quot;registry.terraform.io/hashicorp/google&quot;] (close)&#45;&gt;[root] google_storage_bucket_object.job&#45;code (expand) -->
<g id="edge24" class="edge">
<title>[root] provider[&quot;registry.terraform.io/hashicorp/google&quot;] (close)&#45;&gt;[root] google_storage_bucket_object.job&#45;code (expand)</title>
<path fill="none" stroke="black" d="M656.38,-362.03C559.74,-351.75 428.32,-337.72 303.48,-324.21"/>
<polygon fill="black" stroke="black" points="303.67,-320.71 293.35,-323.12 302.92,-327.67 303.67,-320.71"/>
</g>
<!-- [root] root -->
<g id="node19" class="node">
<title>[root] root</title>
<ellipse fill="none" stroke="black" cx="797.5" cy="-450" rx="58.49" ry="18"/>
<text text-anchor="middle" x="797.5" y="-446.3" font-family="Times,serif" font-size="14.00">[root] root</text>
</g>
<!-- [root] root&#45;&gt;[root] provider[&quot;registry.terraform.io/hashicorp/google&quot;] (close) -->
<g id="edge25" class="edge">
<title>[root] root&#45;&gt;[root] provider[&quot;registry.terraform.io/hashicorp/google&quot;] (close)</title>
<path fill="none" stroke="black" d="M797.5,-431.7C797.5,-423.98 797.5,-414.71 797.5,-406.11"/>
<polygon fill="black" stroke="black" points="801,-406.1 797.5,-396.1 794,-406.1 801,-406.1"/>
</g>
</g>
</svg>
